<svg width="913" height="913" viewBox="0 0 913 913" fill="none" xmlns="http://www.w3.org/2000/svg">
<g clip-path="url(#clip0_3_72)">
<path d="M913 456.5C913.159 564.258 875.042 668.571 805.446 750.84C802.919 753.841 800.344 756.795 797.722 759.733C766.865 794.436 730.92 824.256 691.116 848.174C681.986 853.655 672.656 858.82 663.126 863.67C662.162 864.159 661.183 864.649 660.219 865.123C659.066 865.707 657.897 866.276 656.728 866.845C632.612 878.648 607.492 888.28 581.666 895.625C578.981 896.383 576.291 897.12 573.595 897.836C539.622 906.825 504.723 911.855 469.595 912.826C467.762 912.874 465.962 912.905 464.224 912.937C463.608 912.953 463.008 912.968 462.408 912.968C460.433 912.984 458.475 913 456.5 913C419.481 913.027 382.596 908.556 346.656 899.684C343.054 898.8 339.469 897.868 335.899 896.888C317.095 891.755 298.643 885.407 280.661 877.886C271.183 873.937 261.874 869.677 252.734 865.107C250.664 864.065 248.595 863.022 246.557 861.948C245.689 861.521 244.836 861.063 243.983 860.621C195.266 834.908 151.577 800.631 115.01 759.433C112.482 756.605 110.002 753.731 107.554 750.84C67.263 703.069 37.2087 647.535 19.2522 587.677C1.29571 527.819 -4.18047 464.912 3.16282 402.851C10.5061 340.791 30.5125 280.899 61.9429 226.885C93.3733 172.871 135.558 125.884 185.886 88.8358C188.476 86.9245 191.082 85.029 193.72 83.1809C194.242 82.8176 194.763 82.4543 195.284 82.091C241.634 49.6242 293.658 26.1305 348.662 12.8262C351.789 12.0522 354.917 11.3256 358.076 10.6464C417.654 -2.38567 479.225 -3.46485 539.223 7.47141C542.366 8.05586 545.51 8.65611 548.637 9.30374C603.15 20.4848 655.14 41.5971 702.015 71.5868C703.057 72.2502 704.1 72.9136 705.142 73.6086C707.243 74.9671 709.344 76.3571 711.413 77.7629C773.508 119.509 824.376 175.893 859.532 241.942C894.687 307.992 913.05 381.677 913 456.5Z" fill="#95B8D1"/>
<path d="M341.19 692.664L195.284 705.616L193.72 705.759V83.181C194.241 82.8177 194.763 82.4544 195.284 82.0911C225.692 60.8215 258.586 43.3481 293.234 30.0596L300.69 132.891L301.369 142.305L308.746 244.283L311.02 275.653L340.922 689.031L341.19 692.664Z" fill="#CEDAE2"/>
<path d="M702.015 71.5868C703.057 72.2502 704.1 72.9137 705.142 73.6087V705.758L702.015 705.474L557.688 692.664L557.957 689.031L587.858 275.653L590.133 244.283L597.51 142.305L598.189 132.891L606.008 25.0522C639.726 36.7402 671.951 52.3593 702.015 71.5868V71.5868Z" fill="#CEDAE2"/>
<path d="M702.015 71.5869V714.383C702.015 726.72 693.517 736.75 683.06 736.75H214.239C205.583 736.75 198.238 729.863 196.011 720.465C195.524 718.474 195.28 716.432 195.284 714.383V82.0911C194.763 82.4545 194.241 82.8178 193.72 83.1811C191.082 85.0292 188.476 86.9247 185.885 88.836V714.383C185.745 723.754 189.245 732.813 195.647 739.657C199.004 743.174 203.251 745.717 207.936 747.017C209.991 747.576 212.11 747.858 214.239 747.855H683.06C685.194 747.857 687.318 747.575 689.378 747.017C701.983 743.621 711.413 730.29 711.413 714.383V77.7631C709.344 76.3572 707.243 74.9672 705.142 73.6088C704.1 72.9138 703.057 72.2503 702.015 71.5869Z" fill="#CEDAE2"/>
<path d="M706.718 132.897H190.585V142.31H706.718V132.897Z" fill="#CEDAE2"/>
<path d="M348.662 12.8263C351.789 12.0523 354.917 11.3257 358.076 10.6465V266.239H348.662V12.8263Z" fill="#CEDAE2"/>
<path d="M539.223 7.47119C542.366 8.05564 545.51 8.65589 548.637 9.30352V266.239H539.223V7.47119Z" fill="#CEDAE2"/>
<path d="M765.546 689.031H147.438C136.203 689.031 125.427 693.494 117.482 701.439C109.537 709.384 105.074 720.159 105.074 731.395C105.074 742.631 109.537 753.407 117.482 761.351C125.427 769.296 136.203 773.76 147.438 773.76H765.546C771.562 773.761 777.509 772.478 782.99 769.996C788.471 767.515 793.359 763.892 797.327 759.37C799.123 757.325 800.721 755.115 802.097 752.767C803.163 750.967 804.087 749.087 804.862 747.144C807.442 740.717 808.407 733.755 807.67 726.868C806.934 719.982 804.52 713.381 800.639 707.645C796.758 701.908 791.529 697.212 785.411 693.966C779.293 690.721 772.472 689.026 765.546 689.031V689.031Z" fill="#CEDAE2"/>
<path d="M706.718 244.281H193.723V275.657H706.718V244.281Z" fill="#CEDAE2"/>
<path d="M445.514 234.868H454.927C457.193 234.868 459.437 235.315 461.53 236.182C463.624 237.049 465.526 238.32 467.129 239.923C468.731 241.525 470.002 243.427 470.87 245.521C471.737 247.615 472.183 249.859 472.183 252.125V252.125H428.257C428.257 247.548 430.075 243.159 433.311 239.923C436.548 236.686 440.937 234.868 445.514 234.868H445.514Z" fill="#CEDAE2"/>
<path d="M805.446 750.84C791.724 767.099 776.882 782.379 761.028 796.569H151.972C136.118 782.379 121.276 767.099 107.554 750.84H805.446Z" fill="#99A6AE"/>
<path d="M507.489 592.455H404.942C404.39 592.449 403.84 592.534 403.315 592.708C402.202 593.052 401.229 593.744 400.538 594.682C399.847 595.62 399.475 596.755 399.477 597.92V759.922H512.97V597.92C512.97 597.201 512.827 596.49 512.551 595.826C512.275 595.162 511.871 594.559 511.362 594.052C510.853 593.544 510.249 593.142 509.585 592.868C508.92 592.594 508.208 592.453 507.489 592.455ZM468.679 672.382C468.682 675.01 467.816 677.565 466.215 679.648C464.686 681.67 462.562 683.161 460.142 683.912C457.721 684.663 455.126 684.635 452.722 683.832C450.317 683.03 448.226 681.493 446.742 679.439C445.257 677.385 444.455 674.916 444.448 672.382V653.585C444.477 650.391 445.767 647.338 448.036 645.09C450.305 642.842 453.369 641.581 456.563 641.581C459.757 641.581 462.822 642.842 465.091 645.09C467.36 647.338 468.649 650.391 468.679 653.585V672.382Z" fill="#2F2E41"/>
<path d="M399.129 754.741V770.363C399.129 771.173 399.45 771.95 400.021 772.525C400.592 773.099 401.368 773.424 402.178 773.428H510.269C511.078 773.421 511.852 773.095 512.423 772.522C512.993 771.948 513.315 771.173 513.318 770.363V754.741H399.129Z" fill="#3F3D56"/>
<path d="M677.294 339.642H238.96C235.193 339.647 231.583 341.144 228.918 343.806C226.254 346.467 224.752 350.076 224.743 353.843V649.636C224.746 653.405 226.245 657.019 228.911 659.685C231.576 662.35 235.19 663.849 238.96 663.852H677.294C681.064 663.849 684.678 662.35 687.344 659.685C690.009 657.019 691.508 653.405 691.511 649.636V353.843C691.502 350.076 690.001 346.467 687.336 343.806C684.671 341.144 681.061 339.647 677.294 339.642Z" fill="#1E202A"/>
<path d="M673.63 349.91H242.609C240.592 349.914 238.66 350.718 237.235 352.145C235.811 353.573 235.011 355.507 235.011 357.523V645.987C235.014 648.001 235.816 649.932 237.24 651.356C238.664 652.78 240.595 653.581 242.609 653.585H673.63C675.644 653.581 677.574 652.78 678.999 651.356C680.423 649.932 681.224 648.001 681.228 645.987V357.523C681.227 355.507 680.427 353.573 679.003 352.145C677.579 350.718 675.646 349.914 673.63 349.91Z" fill="#292B32"/>
<path d="M594.303 773.175L590.322 754.268C590.157 753.496 589.802 752.779 589.289 752.18C588.776 751.582 588.121 751.121 587.384 750.84C586.851 750.631 586.283 750.523 585.71 750.524H337.225C336.653 750.523 336.085 750.631 335.551 750.84C334.814 751.121 334.16 751.582 333.646 752.18C333.133 752.779 332.778 753.496 332.613 754.268L328.633 773.175C328.489 773.861 328.5 774.571 328.665 775.253C328.83 775.935 329.144 776.571 329.586 777.116C330.028 777.66 330.586 778.099 331.218 778.402C331.851 778.704 332.544 778.861 333.245 778.862H589.675C590.378 778.865 591.074 778.709 591.708 778.406C592.343 778.102 592.901 777.658 593.339 777.108C593.782 776.565 594.098 775.931 594.265 775.25C594.432 774.57 594.445 773.861 594.303 773.175Z" fill="#2F2E41"/>
<path d="M346.174 753.929H339.818C339.392 753.929 339.047 754.274 339.047 754.7V757.897C339.047 758.323 339.392 758.668 339.818 758.668H346.174C346.6 758.668 346.945 758.323 346.945 757.897V754.7C346.945 754.274 346.6 753.929 346.174 753.929Z" fill="#3F3D56"/>
<path d="M361.97 753.929H355.614C355.188 753.929 354.843 754.274 354.843 754.7V757.897C354.843 758.323 355.188 758.668 355.614 758.668H361.97C362.395 758.668 362.741 758.323 362.741 757.897V754.7C362.741 754.274 362.395 753.929 361.97 753.929Z" fill="#3F3D56"/>
<path d="M377.765 753.929H371.41C370.984 753.929 370.638 754.274 370.638 754.7V757.897C370.638 758.323 370.984 758.668 371.41 758.668H377.765C378.191 758.668 378.536 758.323 378.536 757.897V754.7C378.536 754.274 378.191 753.929 377.765 753.929Z" fill="#3F3D56"/>
<path d="M393.561 753.929H387.205C386.78 753.929 386.434 754.274 386.434 754.7V757.897C386.434 758.323 386.78 758.668 387.205 758.668H393.561C393.987 758.668 394.332 758.323 394.332 757.897V754.7C394.332 754.274 393.987 753.929 393.561 753.929Z" fill="#3F3D56"/>
<path d="M409.357 753.929H403.001C402.575 753.929 402.23 754.274 402.23 754.7V757.897C402.23 758.323 402.575 758.668 403.001 758.668H409.357C409.783 758.668 410.128 758.323 410.128 757.897V754.7C410.128 754.274 409.783 753.929 409.357 753.929Z" fill="#3F3D56"/>
<path d="M425.153 753.929H418.797C418.371 753.929 418.026 754.274 418.026 754.7V757.897C418.026 758.323 418.371 758.668 418.797 758.668H425.153C425.579 758.668 425.924 758.323 425.924 757.897V754.7C425.924 754.274 425.579 753.929 425.153 753.929Z" fill="#3F3D56"/>
<path d="M440.949 753.929H434.593C434.167 753.929 433.822 754.274 433.822 754.7V757.897C433.822 758.323 434.167 758.668 434.593 758.668H440.949C441.374 758.668 441.72 758.323 441.72 757.897V754.7C441.72 754.274 441.374 753.929 440.949 753.929Z" fill="#3F3D56"/>
<path d="M456.744 753.929H450.389C449.963 753.929 449.618 754.274 449.618 754.7V757.897C449.618 758.323 449.963 758.668 450.389 758.668H456.744C457.17 758.668 457.516 758.323 457.516 757.897V754.7C457.516 754.274 457.17 753.929 456.744 753.929Z" fill="#3F3D56"/>
<path d="M472.54 753.929H466.185C465.759 753.929 465.414 754.274 465.414 754.7V757.897C465.414 758.323 465.759 758.668 466.185 758.668H472.54C472.966 758.668 473.311 758.323 473.311 757.897V754.7C473.311 754.274 472.966 753.929 472.54 753.929Z" fill="#3F3D56"/>
<path d="M488.336 753.929H481.981C481.555 753.929 481.209 754.274 481.209 754.7V757.897C481.209 758.323 481.555 758.668 481.981 758.668H488.336C488.762 758.668 489.107 758.323 489.107 757.897V754.7C489.107 754.274 488.762 753.929 488.336 753.929Z" fill="#3F3D56"/>
<path d="M504.132 753.929H497.777C497.351 753.929 497.005 754.274 497.005 754.7V757.897C497.005 758.323 497.351 758.668 497.777 758.668H504.132C504.558 758.668 504.903 758.323 504.903 757.897V754.7C504.903 754.274 504.558 753.929 504.132 753.929Z" fill="#3F3D56"/>
<path d="M519.928 753.929H513.572C513.147 753.929 512.801 754.274 512.801 754.7V757.897C512.801 758.323 513.147 758.668 513.572 758.668H519.928C520.354 758.668 520.699 758.323 520.699 757.897V754.7C520.699 754.274 520.354 753.929 519.928 753.929Z" fill="#3F3D56"/>
<path d="M535.724 753.929H529.368C528.942 753.929 528.597 754.274 528.597 754.7V757.897C528.597 758.323 528.942 758.668 529.368 758.668H535.724C536.15 758.668 536.495 758.323 536.495 757.897V754.7C536.495 754.274 536.15 753.929 535.724 753.929Z" fill="#3F3D56"/>
<path d="M551.52 753.929H545.164C544.738 753.929 544.393 754.274 544.393 754.7V757.897C544.393 758.323 544.738 758.668 545.164 758.668H551.52C551.945 758.668 552.291 758.323 552.291 757.897V754.7C552.291 754.274 551.945 753.929 551.52 753.929Z" fill="#3F3D56"/>
<path d="M567.316 753.929H560.96C560.534 753.929 560.189 754.274 560.189 754.7V757.897C560.189 758.323 560.534 758.668 560.96 758.668H567.316C567.741 758.668 568.087 758.323 568.087 757.897V754.7C568.087 754.274 567.741 753.929 567.316 753.929Z" fill="#3F3D56"/>
<path d="M583.111 753.929H576.756C576.33 753.929 575.985 754.274 575.985 754.7V757.897C575.985 758.323 576.33 758.668 576.756 758.668H583.111C583.537 758.668 583.883 758.323 583.883 757.897V754.7C583.883 754.274 583.537 753.929 583.111 753.929Z" fill="#3F3D56"/>
<path d="M345.987 761.827H339.631C339.205 761.827 338.86 762.172 338.86 762.598V765.795C338.86 766.221 339.205 766.566 339.631 766.566H345.987C346.413 766.566 346.758 766.221 346.758 765.795V762.598C346.758 762.172 346.413 761.827 345.987 761.827Z" fill="#3F3D56"/>
<path d="M361.783 761.827H355.427C355.001 761.827 354.656 762.172 354.656 762.598V765.795C354.656 766.221 355.001 766.566 355.427 766.566H361.783C362.209 766.566 362.554 766.221 362.554 765.795V762.598C362.554 762.172 362.209 761.827 361.783 761.827Z" fill="#3F3D56"/>
<path d="M377.579 761.827H371.223C370.797 761.827 370.452 762.172 370.452 762.598V765.795C370.452 766.221 370.797 766.566 371.223 766.566H377.579C378.005 766.566 378.35 766.221 378.35 765.795V762.598C378.35 762.172 378.005 761.827 377.579 761.827Z" fill="#3F3D56"/>
<path d="M393.375 761.827H387.019C386.593 761.827 386.248 762.172 386.248 762.598V765.795C386.248 766.221 386.593 766.566 387.019 766.566H393.375C393.8 766.566 394.146 766.221 394.146 765.795V762.598C394.146 762.172 393.8 761.827 393.375 761.827Z" fill="#3F3D56"/>
<path d="M409.17 761.827H402.815C402.389 761.827 402.043 762.172 402.043 762.598V765.795C402.043 766.221 402.389 766.566 402.815 766.566H409.17C409.596 766.566 409.941 766.221 409.941 765.795V762.598C409.941 762.172 409.596 761.827 409.17 761.827Z" fill="#3F3D56"/>
<path d="M424.966 761.827H418.61C418.185 761.827 417.839 762.172 417.839 762.598V765.795C417.839 766.221 418.185 766.566 418.61 766.566H424.966C425.392 766.566 425.737 766.221 425.737 765.795V762.598C425.737 762.172 425.392 761.827 424.966 761.827Z" fill="#3F3D56"/>
<path d="M440.762 761.827H434.406C433.981 761.827 433.635 762.172 433.635 762.598V765.795C433.635 766.221 433.981 766.566 434.406 766.566H440.762C441.188 766.566 441.533 766.221 441.533 765.795V762.598C441.533 762.172 441.188 761.827 440.762 761.827Z" fill="#3F3D56"/>
<path d="M456.558 761.827H450.202C449.776 761.827 449.431 762.172 449.431 762.598V765.795C449.431 766.221 449.776 766.566 450.202 766.566H456.558C456.984 766.566 457.329 766.221 457.329 765.795V762.598C457.329 762.172 456.984 761.827 456.558 761.827Z" fill="#3F3D56"/>
<path d="M472.354 761.827H465.998C465.572 761.827 465.227 762.172 465.227 762.598V765.795C465.227 766.221 465.572 766.566 465.998 766.566H472.354C472.78 766.566 473.125 766.221 473.125 765.795V762.598C473.125 762.172 472.78 761.827 472.354 761.827Z" fill="#3F3D56"/>
<path d="M488.149 761.827H481.794C481.368 761.827 481.023 762.172 481.023 762.598V765.795C481.023 766.221 481.368 766.566 481.794 766.566H488.149C488.575 766.566 488.921 766.221 488.921 765.795V762.598C488.921 762.172 488.575 761.827 488.149 761.827Z" fill="#3F3D56"/>
<path d="M503.945 761.827H497.59C497.164 761.827 496.819 762.172 496.819 762.598V765.795C496.819 766.221 497.164 766.566 497.59 766.566H503.945C504.371 766.566 504.717 766.221 504.717 765.795V762.598C504.717 762.172 504.371 761.827 503.945 761.827Z" fill="#3F3D56"/>
<path d="M519.741 761.827H513.386C512.96 761.827 512.615 762.172 512.615 762.598V765.795C512.615 766.221 512.96 766.566 513.386 766.566H519.741C520.167 766.566 520.512 766.221 520.512 765.795V762.598C520.512 762.172 520.167 761.827 519.741 761.827Z" fill="#3F3D56"/>
<path d="M535.537 761.827H529.182C528.756 761.827 528.41 762.172 528.41 762.598V765.795C528.41 766.221 528.756 766.566 529.182 766.566H535.537C535.963 766.566 536.308 766.221 536.308 765.795V762.598C536.308 762.172 535.963 761.827 535.537 761.827Z" fill="#3F3D56"/>
<path d="M551.333 761.827H544.977C544.551 761.827 544.206 762.172 544.206 762.598V765.795C544.206 766.221 544.551 766.566 544.977 766.566H551.333C551.759 766.566 552.104 766.221 552.104 765.795V762.598C552.104 762.172 551.759 761.827 551.333 761.827Z" fill="#3F3D56"/>
<path d="M567.129 761.827H560.773C560.347 761.827 560.002 762.172 560.002 762.598V765.795C560.002 766.221 560.347 766.566 560.773 766.566H567.129C567.555 766.566 567.9 766.221 567.9 765.795V762.598C567.9 762.172 567.555 761.827 567.129 761.827Z" fill="#3F3D56"/>
<path d="M582.925 761.827H576.569C576.143 761.827 575.798 762.172 575.798 762.598V765.795C575.798 766.221 576.143 766.566 576.569 766.566H582.925C583.351 766.566 583.696 766.221 583.696 765.795V762.598C583.696 762.172 583.351 761.827 582.925 761.827Z" fill="#3F3D56"/>
<path d="M477.092 771.305H415.451C415.025 771.305 414.68 771.65 414.68 772.076V775.272C414.68 775.698 415.025 776.043 415.451 776.043H477.092C477.518 776.043 477.864 775.698 477.864 775.272V772.076C477.864 771.65 477.518 771.305 477.092 771.305Z" fill="#3F3D56"/>
<path d="M651.97 389.647H248.666C248.246 389.637 247.847 389.464 247.554 389.165C247.261 388.865 247.097 388.462 247.097 388.043C247.097 387.623 247.261 387.221 247.554 386.921C247.847 386.621 248.246 386.448 248.666 386.439H651.97C652.39 386.448 652.789 386.621 653.082 386.921C653.375 387.221 653.539 387.623 653.539 388.043C653.539 388.462 653.375 388.865 653.082 389.165C652.789 389.464 652.39 389.637 651.97 389.647Z" fill="#414052"/>
<path d="M276.119 378.25C281.31 378.25 285.518 373.948 285.518 368.641C285.518 363.335 281.31 359.033 276.119 359.033C270.928 359.033 266.72 363.335 266.72 368.641C266.72 373.948 270.928 378.25 276.119 378.25Z" fill="#414052"/>
<path d="M308.589 378.25C313.78 378.25 317.988 373.948 317.988 368.641C317.988 363.335 313.78 359.033 308.589 359.033C303.398 359.033 299.19 363.335 299.19 368.641C299.19 373.948 303.398 378.25 308.589 378.25Z" fill="#414052"/>
<path d="M341.059 378.25C346.25 378.25 350.458 373.948 350.458 368.641C350.458 363.335 346.25 359.033 341.059 359.033C335.868 359.033 331.66 363.335 331.66 368.641C331.66 373.948 335.868 378.25 341.059 378.25Z" fill="#414052"/>
<path d="M632.418 361.409H609.356C608.901 361.42 608.467 361.608 608.148 361.935C607.83 362.261 607.651 362.699 607.651 363.155C607.651 363.611 607.83 364.049 608.148 364.375C608.467 364.701 608.901 364.889 609.356 364.9H632.418C632.877 364.894 633.315 364.707 633.637 364.38C633.959 364.054 634.139 363.613 634.139 363.155C634.139 362.696 633.959 362.256 633.637 361.929C633.315 361.602 632.877 361.416 632.418 361.409Z" fill="#414052"/>
<path d="M632.418 367.964H609.356C608.9 367.974 608.466 368.163 608.147 368.489C607.828 368.815 607.649 369.253 607.649 369.71C607.649 370.166 607.828 370.604 608.147 370.931C608.466 371.257 608.9 371.445 609.356 371.455H632.418C632.878 371.45 633.316 371.263 633.639 370.937C633.962 370.61 634.143 370.169 634.143 369.71C634.143 369.25 633.962 368.81 633.639 368.483C633.316 368.156 632.878 367.97 632.418 367.964Z" fill="#414052"/>
<path d="M632.418 374.52H609.356C608.901 374.53 608.467 374.719 608.148 375.045C607.83 375.371 607.651 375.809 607.651 376.265C607.651 376.721 607.83 377.159 608.148 377.485C608.467 377.811 608.901 378 609.356 378.01H632.418C632.877 378.004 633.315 377.817 633.637 377.491C633.959 377.164 634.139 376.724 634.139 376.265C634.139 375.806 633.959 375.366 633.637 375.039C633.315 374.713 632.877 374.526 632.418 374.52Z" fill="#414052"/>
<path d="M283.441 426.919H275.154C272.642 426.919 270.605 428.956 270.605 431.469C270.605 433.981 272.642 436.018 275.154 436.018H283.441C285.954 436.018 287.99 433.981 287.99 431.469C287.99 428.956 285.954 426.919 283.441 426.919Z" fill="#FBFBFB"/>
<path d="M378.216 426.919H369.93C367.417 426.919 365.38 428.956 365.38 431.469C365.38 433.981 367.417 436.018 369.93 436.018H378.216C380.729 436.018 382.765 433.981 382.765 431.469C382.765 428.956 380.729 426.919 378.216 426.919Z" fill="#FBFBFB"/>
<path d="M405.069 426.919H396.782C394.27 426.919 392.233 428.956 392.233 431.469C392.233 433.981 394.27 436.018 396.782 436.018H405.069C407.581 436.018 409.618 433.981 409.618 431.469C409.618 428.956 407.581 426.919 405.069 426.919Z" fill="#E6E6E6"/>
<path d="M352.437 426.161H300.933C298.421 426.161 296.384 428.198 296.384 430.71C296.384 433.223 298.421 435.259 300.933 435.259H352.437C354.949 435.259 356.986 433.223 356.986 430.71C356.986 428.198 354.949 426.161 352.437 426.161Z" fill="#FBFBFB"/>
<path d="M478.804 426.161H427.3C424.788 426.161 422.751 428.198 422.751 430.71C422.751 433.223 424.788 435.259 427.3 435.259H478.804C481.316 435.259 483.353 433.223 483.353 430.71C483.353 428.198 481.316 426.161 478.804 426.161Z" fill="#E6E6E6"/>
<path d="M308.714 447.454H300.428C297.915 447.454 295.878 449.491 295.878 452.003C295.878 454.516 297.915 456.552 300.428 456.552H308.714C311.227 456.552 313.263 454.516 313.263 452.003C313.263 449.491 311.227 447.454 308.714 447.454Z" fill="#FBFBFB"/>
<path d="M403.489 447.454H395.203C392.69 447.454 390.654 449.491 390.654 452.003C390.654 454.516 392.69 456.552 395.203 456.552H403.489C406.002 456.552 408.039 454.516 408.039 452.003C408.039 449.491 406.002 447.454 403.489 447.454Z" fill="#E6E6E6"/>
<path d="M430.343 447.454H422.056C419.543 447.454 417.507 449.491 417.507 452.003C417.507 454.516 419.543 456.552 422.056 456.552H430.343C432.855 456.552 434.892 454.516 434.892 452.003C434.892 449.491 432.855 447.454 430.343 447.454Z" fill="#E6E6E6"/>
<path d="M377.71 446.696H326.207C323.694 446.696 321.658 448.732 321.658 451.245C321.658 453.757 323.694 455.794 326.207 455.794H377.71C380.223 455.794 382.26 453.757 382.26 451.245C382.26 448.732 380.223 446.696 377.71 446.696Z" fill="#FBFBFB"/>
<path d="M504.077 446.696H452.574C450.061 446.696 448.024 448.732 448.024 451.245C448.024 453.757 450.061 455.794 452.574 455.794H504.077C506.59 455.794 508.626 453.757 508.626 451.245C508.626 448.732 506.59 446.696 504.077 446.696Z" fill="#E6E6E6"/>
<path d="M333.988 467.989H325.701C323.189 467.989 321.152 470.025 321.152 472.538C321.152 475.05 323.189 477.087 325.701 477.087H333.988C336.5 477.087 338.537 475.05 338.537 472.538C338.537 470.025 336.5 467.989 333.988 467.989Z" fill="#FBFBFB"/>
<path d="M428.763 467.989H420.476C417.964 467.989 415.927 470.025 415.927 472.538C415.927 475.05 417.964 477.087 420.476 477.087H428.763C431.275 477.087 433.312 475.05 433.312 472.538C433.312 470.025 431.275 467.989 428.763 467.989Z" fill="#E6E6E6"/>
<path d="M455.616 467.989H447.329C444.816 467.989 442.78 470.025 442.78 472.538C442.78 475.05 444.816 477.087 447.329 477.087H455.616C458.128 477.087 460.165 475.05 460.165 472.538C460.165 470.025 458.128 467.989 455.616 467.989Z" fill="#E6E6E6"/>
<path d="M402.984 467.23H351.48C348.968 467.23 346.931 469.267 346.931 471.78C346.931 474.292 348.968 476.329 351.48 476.329H402.984C405.496 476.329 407.533 474.292 407.533 471.78C407.533 469.267 405.496 467.23 402.984 467.23Z" fill="#FBFBFB"/>
<path d="M529.351 467.23H477.847C475.335 467.23 473.298 469.267 473.298 471.78C473.298 474.292 475.335 476.329 477.847 476.329H529.351C531.863 476.329 533.9 474.292 533.9 471.78C533.9 469.267 531.863 467.23 529.351 467.23Z" fill="#E6E6E6"/>
<path d="M359.261 488.523H350.974C348.462 488.523 346.425 490.56 346.425 493.073C346.425 495.585 348.462 497.622 350.974 497.622H359.261C361.774 497.622 363.81 495.585 363.81 493.073C363.81 490.56 361.774 488.523 359.261 488.523Z" fill="#FBFBFB"/>
<path d="M454.036 488.523H445.749C443.237 488.523 441.2 490.56 441.2 493.073C441.2 495.585 443.237 497.622 445.749 497.622H454.036C456.549 497.622 458.585 495.585 458.585 493.073C458.585 490.56 456.549 488.523 454.036 488.523Z" fill="#E6E6E6"/>
<path d="M480.889 488.523H472.602C470.09 488.523 468.053 490.56 468.053 493.073C468.053 495.585 470.09 497.622 472.602 497.622H480.889C483.402 497.622 485.438 495.585 485.438 493.073C485.438 490.56 483.402 488.523 480.889 488.523Z" fill="#E6E6E6"/>
<path d="M428.257 487.765H376.754C374.241 487.765 372.204 489.802 372.204 492.314C372.204 494.827 374.241 496.863 376.754 496.863H428.257C430.769 496.863 432.806 494.827 432.806 492.314C432.806 489.802 430.769 487.765 428.257 487.765Z" fill="#FBFBFB"/>
<path d="M378.216 570.178H369.93C367.417 570.178 365.38 572.214 365.38 574.727C365.38 577.239 367.417 579.276 369.93 579.276H378.216C380.729 579.276 382.765 577.239 382.765 574.727C382.765 572.214 380.729 570.178 378.216 570.178Z" fill="#FBFBFB"/>
<path d="M405.069 570.178H396.782C394.27 570.178 392.233 572.214 392.233 574.727C392.233 577.239 394.27 579.276 396.782 579.276H405.069C407.581 579.276 409.618 577.239 409.618 574.727C409.618 572.214 407.581 570.178 405.069 570.178Z" fill="#FBFBFB"/>
<path d="M478.804 570.936H427.3C424.788 570.936 422.751 572.973 422.751 575.485C422.751 577.998 424.788 580.034 427.3 580.034H478.804C481.316 580.034 483.353 577.998 483.353 575.485C483.353 572.973 481.316 570.936 478.804 570.936Z" fill="#E6E6E6"/>
<path d="M283.441 570.178H275.154C272.642 570.178 270.605 572.214 270.605 574.727C270.605 577.239 272.642 579.276 275.154 579.276H283.441C285.954 579.276 287.99 577.239 287.99 574.727C287.99 572.214 285.954 570.178 283.441 570.178Z" fill="#FBFBFB"/>
<path d="M352.437 570.936H300.933C298.421 570.936 296.384 572.973 296.384 575.485C296.384 577.998 298.421 580.034 300.933 580.034H352.437C354.949 580.034 356.986 577.998 356.986 575.485C356.986 572.973 354.949 570.936 352.437 570.936Z" fill="#FBFBFB"/>
<path d="M308.714 549.643H300.428C297.915 549.643 295.878 551.68 295.878 554.192C295.878 556.705 297.915 558.741 300.428 558.741H308.714C311.227 558.741 313.263 556.705 313.263 554.192C313.263 551.68 311.227 549.643 308.714 549.643Z" fill="#FBFBFB"/>
<path d="M403.489 549.643H395.203C392.69 549.643 390.654 551.68 390.654 554.192C390.654 556.705 392.69 558.741 395.203 558.741H403.489C406.002 558.741 408.039 556.705 408.039 554.192C408.039 551.68 406.002 549.643 403.489 549.643Z" fill="#E6E6E6"/>
<path d="M430.343 549.643H422.056C419.543 549.643 417.507 551.68 417.507 554.192C417.507 556.705 419.543 558.741 422.056 558.741H430.343C432.855 558.741 434.892 556.705 434.892 554.192C434.892 551.68 432.855 549.643 430.343 549.643Z" fill="#FBFBFB"/>
<path d="M377.71 550.401H326.207C323.694 550.401 321.658 552.438 321.658 554.951C321.658 557.463 323.694 559.5 326.207 559.5H377.71C380.223 559.5 382.26 557.463 382.26 554.951C382.26 552.438 380.223 550.401 377.71 550.401Z" fill="#FBFBFB"/>
<path d="M333.988 529.108H325.701C323.189 529.108 321.152 531.145 321.152 533.658C321.152 536.17 323.189 538.207 325.701 538.207H333.988C336.5 538.207 338.537 536.17 338.537 533.658C338.537 531.145 336.5 529.108 333.988 529.108Z" fill="#FBFBFB"/>
<path d="M428.763 529.108H420.476C417.964 529.108 415.927 531.145 415.927 533.658C415.927 536.17 417.964 538.207 420.476 538.207H428.763C431.275 538.207 433.312 536.17 433.312 533.658C433.312 531.145 431.275 529.108 428.763 529.108Z" fill="#E6E6E6"/>
<path d="M455.616 529.108H447.329C444.816 529.108 442.78 531.145 442.78 533.658C442.78 536.17 444.816 538.207 447.329 538.207H455.616C458.128 538.207 460.165 536.17 460.165 533.658C460.165 531.145 458.128 529.108 455.616 529.108Z" fill="#E6E6E6"/>
<path d="M402.984 529.867H351.48C348.968 529.867 346.931 531.903 346.931 534.416C346.931 536.928 348.968 538.965 351.48 538.965H402.984C405.496 538.965 407.533 536.928 407.533 534.416C407.533 531.903 405.496 529.867 402.984 529.867Z" fill="#FBFBFB"/>
<path d="M359.261 508.574H350.974C348.462 508.574 346.425 510.61 346.425 513.123C346.425 515.635 348.462 517.672 350.974 517.672H359.261C361.774 517.672 363.81 515.635 363.81 513.123C363.81 510.61 361.774 508.574 359.261 508.574Z" fill="#FBFBFB"/>
<path d="M454.036 508.574H445.749C443.237 508.574 441.2 510.61 441.2 513.123C441.2 515.635 443.237 517.672 445.749 517.672H454.036C456.549 517.672 458.585 515.635 458.585 513.123C458.585 510.61 456.549 508.574 454.036 508.574Z" fill="#E6E6E6"/>
<path d="M480.889 508.574H472.602C470.09 508.574 468.053 510.61 468.053 513.123C468.053 515.635 470.09 517.672 472.602 517.672H480.889C483.402 517.672 485.438 515.635 485.438 513.123C485.438 510.61 483.402 508.574 480.889 508.574Z" fill="#E6E6E6"/>
<path d="M428.257 509.333H376.754C374.241 509.333 372.204 511.369 372.204 513.882C372.204 516.394 374.241 518.431 376.754 518.431H428.257C430.769 518.431 432.806 516.394 432.806 513.882C432.806 511.369 430.769 509.333 428.257 509.333Z" fill="#FBFBFB"/>
<path d="M656.807 866.829C655.844 867.318 654.864 867.808 653.901 868.282C628.943 880.761 608.977 887.853 581.666 895.624C579.36 869.877 577.133 824.622 574.969 796.569C574.4 789.287 573.832 783.174 573.279 778.862C573.139 776.569 572.671 774.308 571.889 772.148L571.983 778.862L572.22 796.569L573.595 897.836C539.622 906.825 504.723 911.855 469.595 912.826C467.762 912.874 465.962 912.905 464.224 912.937C463.608 912.953 463.008 912.968 462.408 912.968C460.433 912.984 458.475 913 456.5 913C419.481 913.027 382.596 908.556 346.656 899.684C347.43 874.205 348.204 829.456 348.946 796.569C349.104 790.14 349.246 784.153 349.404 778.862C349.704 767.552 350.02 759.401 350.32 756.668C350.054 757.153 349.848 757.667 349.704 758.201C348.241 765.012 347.244 771.915 346.719 778.862C346.166 784.153 345.613 790.14 345.06 796.569C342.122 830.735 339.058 877.191 335.899 896.888C317.095 891.755 298.643 885.407 280.661 877.886C271.183 873.937 261.874 869.677 252.734 865.107C254.471 853.734 256.288 840.987 258.152 827.765C259.605 817.514 261.105 806.978 262.638 796.569C265.007 780.489 267.44 764.724 269.904 750.84C273.505 730.558 277.201 714.257 280.866 706.769C284.341 699.661 287.816 692.648 291.181 685.935C292.35 683.581 293.519 681.259 294.656 679C294.924 678.463 295.193 677.942 295.461 677.421C297.878 672.666 300.216 668.117 302.443 663.852C304.354 660.203 306.171 656.76 307.893 653.585C312.063 645.876 315.601 639.732 318.223 635.846C329.186 619.217 345.506 606.838 364.473 600.763L364.947 600.637L365.279 600.779L397.582 590.859L402.305 589.406L405.48 588.427L416.663 579.913L422.744 575.285L428.447 570.941L439.598 562.458L508.642 566.708L522.084 599.073L552.191 610.083L552.713 609.846L553.171 609.656L553.645 609.783C572.61 615.863 588.928 628.241 599.895 644.865C601.38 647.093 603.18 650.031 605.218 653.585C606.956 656.602 608.851 660.045 610.904 663.852C613.827 669.27 617.017 675.383 620.398 682.001C621.14 683.455 621.898 684.939 622.657 686.44C624.062 689.22 625.489 692.058 626.937 694.954C630.302 701.667 633.777 708.681 637.252 715.805C640.269 721.981 643.318 734.681 646.319 750.84C648.799 764.266 651.263 780.094 653.648 796.569C656.776 817.925 653.443 843.498 656.27 863.148C656.444 864.396 656.633 865.612 656.807 866.829Z" fill="#1E2123"/>
<path d="M457.471 536.624C501.82 536.624 537.772 500.672 537.772 456.323C537.772 411.975 501.82 376.023 457.471 376.023C413.123 376.023 377.171 411.975 377.171 456.323C377.171 500.672 413.123 536.624 457.471 536.624Z" fill="#F6D9CC"/>
<path d="M589.896 349.91C588.309 346.204 586.197 342.746 583.625 339.642C571.431 324.747 549.253 318.192 526.491 335.82C522.11 334.841 517.542 335.103 513.302 336.578C511.3 337.303 509.424 338.337 507.742 339.642C504.295 342.331 501.606 345.869 499.939 349.91C499.047 352.044 498.462 354.293 498.201 356.591C492.574 353.668 486.62 351.425 480.462 349.91C465.355 346.152 449.557 346.152 434.449 349.91C429.608 351.134 424.946 352.982 420.58 355.407C413.188 359.672 408.939 365.058 408.181 371.045C397.518 371.645 386.43 377.252 378.168 386.446C377.236 387.472 376.336 388.546 375.499 389.652C368.552 398.742 364.818 409.882 364.884 421.323V423.329H366.89C372.387 423.323 377.832 424.386 382.923 426.456C386.222 427.782 389.347 429.506 392.227 431.59C394.111 432.927 395.891 434.405 397.55 436.013C401.397 439.738 404.657 444.025 407.217 448.729C413.78 460.614 416.055 474.396 413.662 487.76C413.113 490.854 412.31 493.897 411.261 496.858C409.768 501.084 407.803 505.127 405.401 508.911C405.306 509.053 405.227 509.195 405.132 509.337C404.074 511.027 403.063 512.749 402.115 514.487C401.404 515.782 400.741 517.109 400.125 518.436C398.324 522.128 396.804 525.951 395.575 529.872C393.377 536.806 392.082 543.994 391.721 551.259C391.611 553.186 391.579 555.114 391.642 557.041C391.736 562.008 392.281 566.957 393.269 571.826C393.411 572.489 393.554 573.137 393.696 573.8L394.849 578.839L397.582 590.86L399.477 599.137L401.23 606.813L403.821 603.101C404.706 601.838 406.933 597.952 409.918 592.455C411.893 588.869 414.183 584.589 416.663 579.913C420.122 573.358 423.913 566.044 427.625 558.747C429.126 555.793 430.611 552.855 432.048 549.98C434.765 544.53 437.324 539.27 439.52 534.595C441.541 530.283 443.263 526.46 444.543 523.396C444.938 525.402 445.269 527.439 445.522 529.493C445.806 531.578 446.012 533.695 446.122 535.811C446.154 536.127 446.17 536.459 446.185 536.775L446.249 538.07L446.264 538.449L447.939 538.67C457.596 539.704 467.331 539.778 477.003 538.891H477.019C489.832 537.927 502.401 534.88 514.234 529.872C520.954 526.956 527.229 523.106 532.873 518.436C535.51 516.253 537.971 513.865 540.234 511.296C540.803 510.648 541.355 510.001 541.892 509.337C545.018 505.496 547.695 501.309 549.869 496.859C551.326 493.922 552.561 490.881 553.566 487.76C559.631 469.39 559.284 446.47 552.523 419.238C554.349 418.886 556.098 418.212 557.688 417.248C562.648 414.262 566.092 408.339 567.166 401.104L568.872 401.562C574.919 398.745 580.307 394.688 584.683 389.652C585.55 388.627 586.362 387.557 587.116 386.446C594.84 375.073 594.903 361.425 589.896 349.91Z" fill="#C6B579"/>
<path opacity="0.2" d="M325.9 750.77L339.322 698.973L351.173 743.669L325.9 750.77Z" fill="black"/>
<path d="M683.06 717.021C678.258 783.174 683.234 812.302 656.728 866.845C632.612 878.648 607.492 888.28 581.666 895.625C578.981 896.383 576.291 897.12 573.595 897.836C539.622 906.825 504.723 911.855 469.595 912.826C467.763 912.874 465.962 912.905 464.224 912.937C463.608 912.953 463.008 912.969 462.408 912.969C460.433 912.984 458.475 913 456.5 913C419.481 913.028 382.596 908.556 346.656 899.684C343.054 898.8 339.469 897.868 335.899 896.888C317.095 891.755 298.643 885.407 280.661 877.886C271.183 873.937 261.874 869.677 252.734 865.107C250.664 864.065 248.595 863.022 246.557 861.948C236.085 843.53 230.13 821.132 230.003 794.215C237.254 747.839 667.043 677.026 683.06 717.021Z" fill="#292B32"/>
<path opacity="0.2" d="M683.047 728.35C683.293 724.255 683.567 720.024 683.887 715.619C667.87 675.624 238.08 746.436 230.83 792.813C230.85 797.065 231.032 801.191 231.338 805.22C248.896 759.446 657.201 692.143 683.047 728.35Z" fill="black"/>
<path d="M257.623 540.458C257.728 539.026 257.525 537.588 257.027 536.241C256.529 534.894 255.749 533.669 254.738 532.649C253.728 531.629 252.51 530.837 251.168 530.327C249.826 529.817 248.39 529.6 246.957 529.692C246.423 529.712 245.892 529.778 245.369 529.89L182.562 544.079C181.158 544.42 179.841 545.05 178.696 545.93C177.551 546.81 176.603 547.921 175.914 549.189C174.992 549.224 174.078 549.357 173.185 549.586C171.23 550.029 169.382 550.853 167.746 552.01C166.11 553.167 164.718 554.635 163.649 556.331C162.58 558.026 161.856 559.915 161.517 561.89C161.178 563.866 161.232 565.888 161.675 567.843C162.118 569.797 162.942 571.645 164.099 573.282C165.256 574.918 166.725 576.31 168.42 577.379C171.844 579.537 175.985 580.247 179.932 579.353C182.179 578.831 184.281 577.814 186.084 576.376L207.367 636.306C208.43 638.185 210.073 639.668 212.049 640.536C214.025 641.403 216.229 641.608 218.331 641.119L259.161 631.891C261.247 631.402 263.125 630.265 264.524 628.643C265.923 627.021 266.773 624.997 266.95 622.862L257.623 540.458ZM178.989 575.086C176.17 575.722 173.214 575.214 170.769 573.674C168.324 572.133 166.589 569.686 165.946 566.869C165.302 564.052 165.802 561.094 167.336 558.645C168.87 556.195 171.312 554.454 174.128 553.803C174.326 553.753 174.525 553.803 174.723 553.753C174.708 555.561 175.17 557.341 176.063 558.913L183.851 572.506C182.495 573.792 180.814 574.684 178.989 575.086Z" fill="#558DB4"/>
<path d="M246.957 529.691C247.552 537.629 233.959 546.758 215.751 550.379C199.032 553.803 184.05 551.421 179.833 545.17C180.68 544.667 181.601 544.299 182.561 544.079L245.369 529.89C245.891 529.778 246.423 529.712 246.957 529.691Z" fill="#417192"/>
<path d="M203.519 731.198L238.797 713.559L209.399 634.184L201.651 594.154C200.644 588.953 198.29 584.108 194.825 580.102C191.359 576.096 186.902 573.07 181.9 571.326C176.899 569.582 171.527 569.181 166.321 570.164C161.116 571.146 156.26 573.478 152.238 576.925C146.278 582.034 142.536 589.258 141.801 597.073C141.067 604.888 143.397 612.683 148.301 618.813L177.061 654.763L203.519 731.198Z" fill="#F6D9CC"/>
<path d="M238.797 698.86L191.76 722.378L227.456 834.227C230.019 842.259 234.615 849.492 240.796 855.226C246.977 860.959 254.535 864.998 262.737 866.951C272.85 869.358 283.467 868.483 293.049 864.451C302.631 860.419 310.68 853.439 316.028 844.525L410.685 682.28C417.393 671.1 419.463 657.74 416.454 645.054C413.445 632.368 405.595 621.362 394.58 614.386C388.656 610.634 382.008 608.172 375.07 607.159C368.131 606.146 361.057 606.606 354.307 608.508C347.558 610.41 341.285 613.712 335.896 618.199C330.508 622.685 326.124 628.257 323.031 634.55L265.256 757.657L238.797 698.86Z" fill="#1E2123"/>
<path d="M224.249 597.78C224.161 597.78 224.074 597.766 223.992 597.737L213.722 594.202C213.598 594.159 213.487 594.086 213.398 593.99C213.309 593.894 213.245 593.777 213.213 593.649C213.181 593.522 213.181 593.389 213.213 593.262C213.245 593.135 213.309 593.018 213.398 592.921L221.036 584.605C221.105 584.528 221.19 584.466 221.284 584.422C221.378 584.378 221.48 584.353 221.584 584.348C221.688 584.343 221.791 584.359 221.889 584.395C221.987 584.43 222.077 584.485 222.153 584.555C222.23 584.625 222.292 584.71 222.335 584.804C222.379 584.899 222.404 585.001 222.408 585.104C222.412 585.208 222.396 585.312 222.36 585.41C222.324 585.507 222.269 585.597 222.199 585.673L215.377 593.1L224.506 596.244C224.682 596.305 224.832 596.426 224.927 596.587C225.023 596.747 225.058 596.937 225.028 597.121C224.997 597.305 224.902 597.473 224.759 597.593C224.616 597.714 224.436 597.78 224.249 597.78Z" fill="#FBFBFB"/>
<path d="M238.325 594.899C238.168 594.899 238.014 594.852 237.884 594.764C237.753 594.676 237.652 594.551 237.593 594.405C237.534 594.259 237.52 594.099 237.552 593.945C237.585 593.791 237.663 593.651 237.776 593.541L244.718 586.83L235.393 582.987C235.297 582.948 235.209 582.89 235.136 582.817C235.062 582.744 235.004 582.657 234.964 582.561C234.924 582.465 234.903 582.363 234.903 582.259C234.903 582.155 234.923 582.052 234.962 581.956C235.002 581.86 235.06 581.773 235.133 581.7C235.207 581.626 235.294 581.568 235.39 581.528C235.485 581.488 235.588 581.468 235.692 581.468C235.796 581.468 235.898 581.488 235.994 581.528L246.434 585.83C246.556 585.88 246.663 585.959 246.746 586.061C246.829 586.162 246.885 586.283 246.91 586.412C246.934 586.54 246.926 586.673 246.887 586.798C246.847 586.923 246.777 587.036 246.683 587.127L238.874 594.677C238.727 594.819 238.53 594.899 238.325 594.899Z" fill="#FBFBFB"/>
<path d="M226.404 602.611C226.326 602.612 226.247 602.6 226.172 602.576C226.073 602.546 225.981 602.496 225.901 602.43C225.821 602.364 225.755 602.282 225.706 602.191C225.657 602.099 225.627 601.999 225.618 601.895C225.608 601.792 225.619 601.688 225.649 601.589L232.939 577.895C233.001 577.695 233.14 577.529 233.325 577.431C233.51 577.334 233.726 577.314 233.926 577.375C234.126 577.437 234.293 577.575 234.391 577.76C234.489 577.945 234.51 578.161 234.449 578.361L227.159 602.055C227.11 602.216 227.009 602.357 226.873 602.457C226.738 602.557 226.573 602.611 226.404 602.611Z" fill="#FBFBFB"/>
</g>
<defs>
<clipPath id="clip0_3_72">
<rect width="913" height="913" fill="white"/>
</clipPath>
</defs>
</svg>
