<svg width="23" height="34" viewBox="0 0 23 34" fill="none" xmlns="http://www.w3.org/2000/svg">
<path d="M22.875 29.6484C22.625 30.1641 22.3125 30.6328 21.9375 31.0547C21.5625 31.4609 21.1406 31.8125 20.6719 32.1094C20.2031 32.3906 19.7031 32.6094 19.1719 32.7656C18.6406 32.9219 18.0859 33 17.5078 33C16.2891 33 15.25 32.7031 14.3906 32.1094C13.5469 31.5156 12.8359 30.7422 12.2578 29.7891C11.8359 30.2578 11.3672 30.7266 10.8516 31.1953C10.3516 31.6484 9.8125 32.0547 9.23438 32.4141C8.67188 32.7578 8.08594 33.0391 7.47656 33.2578C6.86719 33.4766 6.25781 33.5859 5.64844 33.5859C4.91406 33.5859 4.25781 33.4375 3.67969 33.1406C3.10156 32.8438 2.60938 32.4531 2.20312 31.9688C1.79688 31.4688 1.48438 30.9062 1.26562 30.2812C1.04688 29.6406 0.9375 28.9766 0.9375 28.2891C0.9375 27.2578 1.16406 26.2188 1.61719 25.1719C2.08594 24.125 2.69531 23.1797 3.44531 22.3359C4.21094 21.4766 5.08594 20.7812 6.07031 20.25C7.05469 19.7188 8.07812 19.4531 9.14062 19.4531C9.45312 19.4531 9.72656 19.4844 9.96094 19.5469V18.5625C9.96094 18.1094 9.97656 17.5078 10.0078 16.7578C10.0391 16.0078 10.1016 15.1797 10.1953 14.2734C10.2891 13.3516 10.4062 12.3906 10.5469 11.3906C10.7031 10.375 10.8984 9.375 11.1328 8.39062C11.3828 7.39062 11.6719 6.44531 12 5.55469C12.3281 4.64844 12.7109 3.85938 13.1484 3.1875C13.5859 2.5 14.0859 1.95312 14.6484 1.54688C15.2109 1.14063 15.8438 0.9375 16.5469 0.9375C17.375 0.9375 18.0469 1.17969 18.5625 1.66406C19.0781 2.14844 19.4844 2.75 19.7812 3.46875C20.0781 4.17188 20.2734 4.92188 20.3672 5.71875C20.4766 6.51562 20.5312 7.22656 20.5312 7.85156C20.5312 8.66406 20.4531 9.60938 20.2969 10.6875C20.1406 11.75 19.9219 12.8828 19.6406 14.0859C19.3594 15.2734 19.0234 16.4922 18.6328 17.7422C18.2422 18.9922 17.8203 20.1953 17.3672 21.3516C16.9141 22.5078 16.4219 23.5859 15.8906 24.5859C15.375 25.5703 14.8516 26.4062 14.3203 27.0938C14.5234 27.7031 14.7656 28.2656 15.0469 28.7812C15.3438 29.2969 15.6875 29.7422 16.0781 30.1172C16.4688 30.4922 16.9141 30.7891 17.4141 31.0078C17.9141 31.2109 18.4844 31.3125 19.125 31.3125C20.5938 31.3125 21.7969 30.7266 22.7344 29.5547L22.875 29.6484ZM13.2656 16.5938C13.2656 17.1562 13.2656 17.8125 13.2656 18.5625C13.2656 19.2969 13.2812 20.0781 13.3125 20.9062C13.3594 21.7344 13.4297 22.5859 13.5234 23.4609C13.6328 24.3203 13.7891 25.1562 13.9922 25.9688C14.6484 24.7031 15.25 23.3203 15.7969 21.8203C16.3438 20.3047 16.8125 18.7578 17.2031 17.1797C17.6094 15.5859 17.9219 14 18.1406 12.4219C18.3594 10.8438 18.4688 9.35156 18.4688 7.94531C18.4688 7.64844 18.4531 7.21875 18.4219 6.65625C18.3906 6.09375 18.3047 5.53906 18.1641 4.99219C18.0234 4.42969 17.8125 3.94531 17.5312 3.53906C17.25 3.11719 16.8672 2.90625 16.3828 2.90625C16.0078 2.90625 15.6719 3.08594 15.375 3.44531C15.0781 3.78906 14.8203 4.25781 14.6016 4.85156C14.3828 5.42969 14.1953 6.09375 14.0391 6.84375C13.8984 7.59375 13.7734 8.375 13.6641 9.1875C13.5703 10 13.4922 10.8047 13.4297 11.6016C13.3828 12.3984 13.3438 13.1406 13.3125 13.8281C13.2969 14.5 13.2812 15.0859 13.2656 15.5859C13.2656 16.0703 13.2656 16.4062 13.2656 16.5938ZM7.35938 31.0312C8.25 31.0312 9.07031 30.8594 9.82031 30.5156C10.5859 30.1719 11.2812 29.7188 11.9062 29.1562C11.6094 28.5781 11.3516 27.9609 11.1328 27.3047C10.9297 26.6328 10.75 25.9609 10.5938 25.2891C10.4531 24.6016 10.3359 23.9141 10.2422 23.2266C10.1641 22.5391 10.1016 21.875 10.0547 21.2344C9.86719 21.0312 9.63281 20.8672 9.35156 20.7422C9.07031 20.6016 8.72656 20.5312 8.32031 20.5312C7.58594 20.5312 6.92969 20.7344 6.35156 21.1406C5.78906 21.5312 5.3125 22.0312 4.92188 22.6406C4.53125 23.2344 4.23438 23.8906 4.03125 24.6094C3.82812 25.3125 3.72656 25.9844 3.72656 26.625C3.72656 27.2188 3.78906 27.7891 3.91406 28.3359C4.05469 28.8672 4.27344 29.3359 4.57031 29.7422C4.86719 30.1328 5.24219 30.4453 5.69531 30.6797C6.16406 30.9141 6.71875 31.0312 7.35938 31.0312Z" fill="url(#paint0_linear_542_2)"/>
<defs>
<linearGradient id="paint0_linear_542_2" x1="-2.85167e-07" y1="26.1765" x2="24.4471" y2="20.6568" gradientUnits="userSpaceOnUse">
<stop stop-color="#B597F6"/>
<stop offset="0.0001" stop-color="#B597F6"/>
<stop offset="0.296875" stop-color="#558DB4"/>
<stop offset="1" stop-color="#95B8D1"/>
</linearGradient>
</defs>
</svg>
